Coordinates
version=1
nRows=24
nColumns=24
inDegrees=yes

Units are S.I. units (second, meters, Newtons, ...)
Angles are in degrees.

endheader
time	pelvis_tilt	pelvis_list	pelvis_rotation	pelvis_tx	pelvis_ty	pelvis_tz	hip_flexion_r	hip_adduction_r	hip_rotation_r	knee_angle_r	ankle_angle_r	subtalar_angle_r	mtp_angle_r	hip_flexion_l	hip_adduction_l	hip_rotation_l	knee_angle_l	ankle_angle_l	subtalar_angle_l	mtp_angle_l	lumbar_extension	lumbar_bending	lumbar_rotation
      1.81683333	      1.97420098	      8.47526586	     -6.23807197	      1.35953602	      1.02027494	      0.27833003	     13.79511971	     -7.67842848	      5.02762130	    -62.72563501	      7.55280309	    -14.30735315	     -4.87016003	      6.07658844	     13.42241149	      0.38381634	    -12.00429018	      0.33938535	    -19.70254202	      2.95254441	     -1.67892689	     -9.91427803	      6.84417292
      1.82100000	      1.94375526	      8.39367332	     -6.01424311	      1.36401986	      1.02080793	      0.27809543	     14.29062280	     -7.54081295	      4.85570207	    -62.26036735	      7.70586100	    -14.33136408	     -4.90038446	      5.64401846	     13.37857238	      0.64944158	    -11.72403777	      0.39875430	    -19.61565628	      2.93200286	     -1.70632431	     -9.82406104	      6.76076695
      1.82516667	      1.94914713	      8.31096682	     -5.79620537	      1.36847042	      1.02135316	      0.27785569	     14.74104156	     -7.40922717	      4.69089315	    -61.76832528	      7.80940598	    -14.34965771	     -4.98825022	      5.15156252	     13.34761033	      1.02048591	    -11.40257642	      0.46204116	    -19.71997660	      2.86636179	     -1.79714022	     -9.73455133	      6.43389648
      1.82933333	      1.90231050	      8.23140409	     -5.56289125	      1.37292807	      1.02179259	      0.27761949	     15.23830069	     -7.28151699	      4.51299169	    -61.25649132	      7.94821966	    -14.35556845	     -5.01995418	      4.74634611	     13.29745684	      1.30262093	    -11.13584302	      0.51624129	    -19.63821727	      2.84474375	     -1.81127406	     -9.64180008	      6.35322974
      1.83350000	      1.87896279	      8.14485585	     -5.32535354	      1.37737402	      1.02225817	      0.27737663	     15.69575336	     -7.15549011	      4.32593721	    -60.70403223	      8.06162222	    -14.35356449	     -5.06233313	      4.30381662	     13.24393578	      1.62927706	    -10.85101417	      0.58636509	    -19.62526496	      2.81619643	     -1.86181390	     -9.54319869	      6.17243746
      1.83766667	      1.85860905	      8.07844674	     -5.11564879	      1.38182052	      1.02267952	      0.27716313	     16.15526726	     -7.04869571	      4.17510766	    -60.14085169	      8.14639440	    -14.35699121	     -5.15321235	      3.84450197	     13.21598930	      1.99922764	    -10.53087633	      0.62626824	    -19.76917072	      2.74687897	     -1.90796005	     -9.47860641	      5.83268475
      1.84183333	      1.81915250	      7.99851322	     -4.87755750	      1.38625169	      1.02307107	      0.27695159	     16.61295931	     -6.93184655	      3.99778831	    -59.53755999	      8.25054962	    -14.33903555	     -5.20734512	      3.43188546	     13.15572718	      2.29573561	    -10.26517883	      0.67948898	    -19.73658138	      2.70667050	     -1.93204133	     -9.40822304	      5.70255413
      1.84600000	      1.80600258	      7.93163980	     -4.65365915	      1.39064080	      1.02343019	      0.27672167	     17.05364964	     -6.84048282	      3.82782697	    -58.93633935	      8.34211907	    -14.32835249	     -5.29355296	      2.98027841	     13.11577145	      2.63436869	     -9.96383748	      0.73243464	    -19.80419085	      2.64333235	     -1.99800526	     -9.32113568	      5.43048803
      1.85016667	      1.74756798	      7.86597489	     -4.41182500	      1.39507816	      1.02371392	      0.27651421	     17.51908631	     -6.74869045	      3.65026681	    -58.29930138	      8.44111757	    -14.30277332	     -5.34113977	      2.59579621	     13.06211799	      2.93175522	     -9.70906789	      0.78130837	    -19.76814981	      2.60870063	     -1.99472762	     -9.25810517	      5.31561629
      1.85433333	      1.72681668	      7.81234670	     -4.18385473	      1.39948341	      1.02400674	      0.27630492	     17.94492893	     -6.68017895	      3.47965378	    -57.64990613	      8.51418655	    -14.28269577	     -5.42111874	      2.15080596	     13.02718190	      3.27818806	     -9.40124671	      0.82580689	    -19.84609304	      2.54653662	     -2.04769174	     -9.19190101	      5.02644719
      1.85850000	      1.68477882	      7.75311379	     -3.94035272	      1.40387104	      1.02425195	      0.27608759	     18.37810450	     -6.60841673	      3.30191418	    -56.97095369	      8.59320981	    -14.25851312	     -5.52536885	      1.74477503	     12.98026077	      3.62742027	     -9.12867614	      0.83137555	    -19.90462043	      2.46212270	     -2.07704034	     -9.13091287	      4.81301239
      1.86266667	      1.65233835	      7.68888839	     -3.71921996	      1.40826473	      1.02448430	      0.27591963	     18.79390527	     -6.52724198	      3.14642460	    -56.26756988	      8.64296449	    -14.23209892	     -5.59888476	      1.33560661	     12.91926036	      3.91320297	     -8.86984140	      0.91141454	    -19.89119631	      2.40349510	     -2.11347955	     -9.06079603	      4.65600499
      1.86683333	      1.59595888	      7.63320597	     -3.47597241	      1.41266861	      1.02465297	      0.27573184	     19.22245407	     -6.46821084	      2.96563104	    -55.54369613	      8.70795828	    -14.18202514	     -5.62759428	      0.96090425	     12.85936097	      4.17920807	     -8.62816228	      0.97109717	    -19.82622832	      2.38192880	     -2.11382664	     -8.99936953	      4.56289931
      1.87100000	      1.57920843	      7.59042053	     -3.24012748	      1.41703599	      1.02484664	      0.27554929	     19.60500235	     -6.42665943	      2.80145137	    -54.80932432	      8.73359221	    -14.17012705	     -5.70850039	      0.52296723	     12.82159894	      4.55129755	     -8.33914537	      0.98619645	    -19.93987787	      2.30970159	     -2.17466785	     -8.95722017	      4.23769261
      1.87516667	      1.51163362	      7.54508864	     -3.02210493	      1.42144649	      1.02492574	      0.27541753	     20.03451851	     -6.37607316	      2.65342971	    -54.05169775	      8.77407647	    -14.10932222	     -5.73349675	      0.16312284	     12.76395937	      4.79062914	     -8.09614538	      1.06503364	    -19.87238378	      2.28934126	     -2.16179649	     -8.90683093	      4.18001403
      1.87933333	      1.48715193	      7.48743715	     -2.78842772	      1.42584908	      1.02506401	      0.27526309	     20.39416272	     -6.32575438	      2.48497758	    -53.25708901	      8.79357105	    -14.06233711	     -5.76196645	     -0.24869620	     12.69457042	      5.08030922	     -7.84525967	      1.13250233	    -19.84753236	      2.26579588	     -2.20168538	     -8.84213871	      4.02767804
      1.88350000	      1.45422737	      7.46590850	     -2.56774093	      1.43023360	      1.02511908	      0.27513229	     20.77520189	     -6.31441932	      2.33695871	    -52.47676448	      8.80121064	    -14.02831712	     -5.82010564	     -0.66722035	     12.66546438	      5.42387817	     -7.55595452	      1.17444917	    -19.96240120	      2.21065433	     -2.23969073	     -8.82612686	      3.72939255
      1.88766667	      1.41746022	      7.42852193	     -2.35041025	      1.43463150	      1.02516924	      0.27503850	     21.14012680	     -6.28515147	      2.19002853	    -51.65870190	      8.80916352	    -13.96906770	     -5.84348558	     -1.05930015	     12.60575990	      5.66943400	     -7.30774395	      1.22733095	    -19.89594708	      2.18912546	     -2.25958766	     -8.78914731	      3.65820977
      1.89183333	      1.37608801	      7.39371499	     -2.12998777	      1.43904116	      1.02517094	      0.27492457	     21.49825640	     -6.26627519	      2.03985614	    -50.82330606	      8.81032016	    -13.90756606	     -5.86591389	     -1.44735785	     12.54853701	      5.93059338	     -7.06031606	      1.30027842	    -19.86359328	      2.16901373	     -2.28199507	     -8.75082337	      3.53653366
      1.89600000	      1.35214258	      7.36513507	     -1.91932244	      1.44342442	      1.02517139	      0.27486006	     21.83142041	     -6.25111617	      1.90339377	    -49.97084498	      8.78989357	    -13.85264857	     -5.88883216	     -1.85967461	     12.49312579	      6.20322922	     -6.79801137	      1.36633906	    -19.84549185	      2.14476717	     -2.32487887	     -8.72635650	      3.37993001
      1.90016667	      1.35259610	      7.35796047	     -1.73436437	      1.44784793	      1.02515964	      0.27481678	     22.13678606	     -6.26061806	      1.78425844	    -49.11219589	      8.76833920	    -13.79730584	     -5.92831139	     -2.31898446	     12.46312953	      6.49800146	     -6.49145284	      1.41510913	    -19.93030671	      2.09296838	     -2.39151904	     -8.72650176	      3.12741624
      1.90433333	      1.29396807	      7.34174489	     -1.51451329	      1.45228322	      1.02505550	      0.27475230	     22.48387832	     -6.26925468	      1.64048429	    -48.23116043	      8.75200675	    -13.71059950	     -5.94204852	     -2.68181990	     12.41053590	      6.72882521	     -6.25388605	      1.48507233	    -19.84485792	      2.07538593	     -2.38535690	     -8.71304968	      3.07204786
      1.90850000	      1.28984177	      7.33018581	     -1.33051242	      1.45668640	      1.02497635	      0.27473775	     22.77254425	     -6.27642476	      1.52456700	    -47.33498748	      8.72197747	    -13.64599897	     -5.97872412	     -3.12577771	     12.36614036	      7.00032011	     -5.96311840	      1.53117934	    -19.88739993	      2.01362864	     -2.44969239	     -8.70878914	      2.87577242
      1.91266667	      1.23619861	      7.32025906	     -1.12418179	      1.46112957	      1.02481657	      0.27470712	     23.09551732	     -6.29301994	      1.39421020	    -46.41647298	      8.68904271	    -13.54332916	     -5.98871901	     -3.48813478	     12.31584545	      7.22065020	     -5.73649499	      1.63804012	    -19.80736606	      1.99699446	     -2.44666789	     -8.69878960	      2.81690833
